# xmcd
#
# Track frame offsets:
# 150
# 26674
# 41331
# 62234
# 73883
# 95540
# 106414
# 128692
# 140748
# 161157
# 181105
# 199544
# 208812
# 218782
# 233623
# 247306
# 262804
# 272404
# 289087
# 316064
#
# Disc length: 4378 seconds
#
#
# Revision: 1
# Processed by: cddbd v1.5.2PL0 Copyright (c) Steve Scherf et al.
# Submitted via: FreeRIP 2.945 
#
DISCID=2a111814
DTITLE=Varios - Os 100 Melhores Blues da História
DYEAR=1900
DGENRE=Bues
TTITLE0=Baby Please Don't Go
TTITLE1=Born Under A Bad Sign
TTITLE2=King Sbake
TTITLE3=Poor Fool
TTITLE4=One Room Coutry Shack
TTITLE5=Key to The Highway
TTITLE6=Angel Of Mercy
TTITLE7=Ride In My New Car
TTITLE8=Hush Hush
TTITLE9=There Is A Found
TTITLE10=Chevrolet
TTITLE11=Big Road Blues
TTITLE12=Wish Someone Would Care
TTITLE13=Keep A knockin'
TTITLE14=In The wee wee Hours
TTITLE15=The Letter
TTITLE16=Love You Like A Woman
TTITLE17=Dead Man Blues
TTITLE18=Early In The Morning
TTITLE19=Good Morning Little School Girl
EXTD=
EXTT0=Eric bell
EXTT1=Steel Blues
EXTT2=Albert King and John Lee Hooker
EXTT3=Ike and Tina Turner
EXTT4=John Lee Hooker
EXTT5=Muddy Waters
EXTT6=Albert King
EXTT7=Big Joe Williams
EXTT8=The Clifton Chenier Band
EXTT9=Aretha Franklin
EXTT10=Bo Wilson Band
EXTT11=Canned Heart
EXTT12=Irma Thomas
EXTT13=Jimmi Hendrix
EXTT14=Chuck Berry
EXTT15=B.B.King
EXTT16=Koko Taylor
EXTT17=Jelly Roll Morton
EXTT18=Luther Allison
EXTT19=Eric Clapton
PLAYORDER=
